<svg width="125" height="24" viewBox="0 0 125 24" fill="none" xmlns="http://www.w3.org/2000/svg">
<rect y="6" width="12" height="12" rx="6" fill="#00BAFC"/>
<path d="M22.368 6.544V18H20.896V6.544H22.368ZM27.6035 18.256C26.4515 18.256 25.5022 17.8613 24.7555 17.072C24.0088 16.2827 23.6355 15.2853 23.6355 14.08C23.6355 12.8853 23.9982 11.8933 24.7235 11.104C25.4488 10.304 26.3768 9.904 27.5075 9.904C28.6702 9.904 29.5928 10.2827 30.2755 11.04C30.9688 11.7867 31.3155 12.8373 31.3155 14.192L31.2995 14.352H25.1395C25.1608 15.12 25.4168 15.7387 25.9075 16.208C26.3982 16.6773 26.9848 16.912 27.6675 16.912C28.6062 16.912 29.3422 16.4427 29.8755 15.504L31.1875 16.144C30.8355 16.8053 30.3448 17.3227 29.7155 17.696C29.0968 18.0693 28.3928 18.256 27.6035 18.256ZM25.2515 13.136H29.7475C29.7048 12.592 29.4808 12.144 29.0755 11.792C28.6808 11.4293 28.1475 11.248 27.4755 11.248C26.9208 11.248 26.4408 11.4187 26.0355 11.76C25.6408 12.1013 25.3795 12.56 25.2515 13.136ZM32.6616 10.16H34.0696V11.248H34.1336C34.3576 10.864 34.699 10.544 35.1576 10.288C35.627 10.032 36.1123 9.904 36.6136 9.904C37.5736 9.904 38.3096 10.1813 38.8216 10.736C39.3443 11.28 39.6056 12.0587 39.6056 13.072V18H38.1336V13.168C38.1016 11.888 37.4563 11.248 36.1976 11.248C35.611 11.248 35.1203 11.488 34.7256 11.968C34.331 12.4373 34.1336 13.0027 34.1336 13.664V18H32.6616V10.16ZM44.8535 16.912C45.5788 16.912 46.1708 16.6507 46.6295 16.128C47.1095 15.6053 47.3495 14.9227 47.3495 14.08C47.3495 13.2587 47.1095 12.5813 46.6295 12.048C46.1602 11.5147 45.5682 11.248 44.8535 11.248C44.1495 11.248 43.5575 11.5147 43.0775 12.048C42.5975 12.5813 42.3575 13.2587 42.3575 14.08C42.3575 14.912 42.5975 15.5893 43.0775 16.112C43.5575 16.6453 44.1495 16.912 44.8535 16.912ZM44.6135 18.256C43.5895 18.256 42.7095 17.8507 41.9735 17.04C41.2482 16.2187 40.8855 15.232 40.8855 14.08C40.8855 12.928 41.2482 11.9413 41.9735 11.12C42.7095 10.3093 43.5895 9.904 44.6135 9.904C45.1895 9.904 45.7122 10.0267 46.1815 10.272C46.6615 10.5173 47.0295 10.8427 47.2855 11.248H47.3495L47.2855 10.16V6.544H48.7575V18H47.3495V16.912H47.2855C47.0295 17.3173 46.6615 17.6427 46.1815 17.888C45.7122 18.1333 45.1895 18.256 44.6135 18.256ZM52.4563 7.456C52.4563 7.744 52.3549 7.98933 52.1523 8.192C51.9496 8.39467 51.7043 8.496 51.4163 8.496C51.1283 8.496 50.8829 8.39467 50.6803 8.192C50.4776 7.98933 50.3763 7.744 50.3763 7.456C50.3763 7.168 50.4776 6.92267 50.6803 6.72C50.8829 6.51733 51.1283 6.416 51.4163 6.416C51.7043 6.416 51.9496 6.51733 52.1523 6.72C52.3549 6.92267 52.4563 7.168 52.4563 7.456ZM52.1523 10.16V18H50.6803V10.16H52.1523ZM54.0679 10.16H55.4759V11.248H55.5399C55.7639 10.864 56.1052 10.544 56.5639 10.288C57.0332 10.032 57.5185 9.904 58.0199 9.904C58.9799 9.904 59.7159 10.1813 60.2279 10.736C60.7505 11.28 61.0119 12.0587 61.0119 13.072V18H59.5399V13.168C59.5079 11.888 58.8625 11.248 57.6039 11.248C57.0172 11.248 56.5265 11.488 56.1319 11.968C55.7372 12.4373 55.5399 13.0027 55.5399 13.664V18H54.0679V10.16ZM66.1816 16.912C66.907 16.912 67.499 16.6507 67.9576 16.128C68.4376 15.6053 68.6776 14.9227 68.6776 14.08C68.6776 13.2587 68.4376 12.5813 67.9576 12.048C67.4883 11.5147 66.8963 11.248 66.1816 11.248C65.4776 11.248 64.8856 11.5147 64.4056 12.048C63.9256 12.5813 63.6856 13.2587 63.6856 14.08C63.6856 14.912 63.9256 15.5893 64.4056 16.112C64.8856 16.6453 65.4776 16.912 66.1816 16.912ZM66.1336 21.712C65.6963 21.712 65.2856 21.6533 64.9016 21.536C64.5176 21.4293 64.1656 21.2747 63.8456 21.072C63.5363 20.8693 63.2696 20.6293 63.0456 20.352C62.8216 20.0747 62.651 19.7653 62.5336 19.424L63.9256 18.848C64.0856 19.3067 64.363 19.6747 64.7576 19.952C65.1523 20.2293 65.611 20.368 66.1336 20.368C66.9336 20.368 67.5576 20.128 68.0056 19.648C68.4536 19.168 68.6776 18.5067 68.6776 17.664V16.912H68.6136C68.3363 17.328 67.9576 17.6587 67.4776 17.904C67.0083 18.1387 66.4963 18.256 65.9416 18.256C64.9176 18.256 64.0376 17.856 63.3016 17.056C62.5763 16.2347 62.2136 15.2427 62.2136 14.08C62.2136 12.9173 62.5763 11.9307 63.3016 11.12C64.0376 10.3093 64.9176 9.904 65.9416 9.904C66.4963 9.904 67.0083 10.0267 67.4776 10.272C67.9576 10.5067 68.3363 10.832 68.6136 11.248H68.6776V10.16H70.0856V17.664C70.0856 18.9227 69.7283 19.9093 69.0136 20.624C68.2883 21.3493 67.3283 21.712 66.1336 21.712Z" fill="black"/>
</svg>
