<svg width="500" height="24" viewBox="0 0 500 24" fill="none" xmlns="http://www.w3.org/2000/svg">
<rect y="6" width="12" height="12" rx="6" fill="#00BAFC"/>
<path d="M27.792 18H26.016L23.568 14.304L22.368 15.488V18H20.896V6.544H22.368V13.6L25.76 10.16H27.648V10.224L24.592 13.264L27.792 17.936V18ZM27.948 14.08C27.948 12.8747 28.3267 11.8773 29.084 11.088C29.852 10.2987 30.8173 9.904 31.98 9.904C33.1427 9.904 34.1027 10.2987 34.86 11.088C35.628 11.8773 36.012 12.8747 36.012 14.08C36.012 15.296 35.628 16.2933 34.86 17.072C34.1027 17.8613 33.1427 18.256 31.98 18.256C30.8173 18.256 29.852 17.8613 29.084 17.072C28.3267 16.2827 27.948 15.2853 27.948 14.08ZM29.42 14.08C29.42 14.9227 29.6653 15.6053 30.156 16.128C30.6467 16.6507 31.2547 16.912 31.98 16.912C32.7053 16.912 33.3133 16.6507 33.804 16.128C34.2947 15.6053 34.54 14.9227 34.54 14.08C34.54 13.248 34.2947 12.5707 33.804 12.048C33.3027 11.5147 32.6947 11.248 31.98 11.248C31.2653 11.248 30.6573 11.5147 30.156 12.048C29.6653 12.5707 29.42 13.248 29.42 14.08ZM37.1929 10.16H38.6009V11.248H38.6649C38.8889 10.864 39.2302 10.544 39.6889 10.288C40.1582 10.032 40.6435 9.904 41.1449 9.904C42.1049 9.904 42.8409 10.1813 43.3529 10.736C43.8755 11.28 44.1369 12.0587 44.1369 13.072V18H42.6649V13.168C42.6329 11.888 41.9875 11.248 40.7289 11.248C40.1422 11.248 39.6515 11.488 39.2569 11.968C38.8622 12.4373 38.6649 13.0027 38.6649 13.664V18H37.1929V10.16ZM48.5625 18.128C47.9225 18.128 47.3892 17.9307 46.9625 17.536C46.5465 17.1413 46.3332 16.592 46.3225 15.888V11.504H44.9465V10.16H46.3225V7.76H47.7945V10.16H49.7145V11.504H47.7945V15.408C47.7945 15.9307 47.8958 16.288 48.0985 16.48C48.3012 16.6613 48.5305 16.752 48.7865 16.752C48.9038 16.752 49.0158 16.7413 49.1225 16.72C49.2398 16.688 49.3465 16.6507 49.4425 16.608L49.9065 17.92C49.5225 18.0587 49.0745 18.128 48.5625 18.128ZM52.0305 15.6C52.0305 15.984 52.1905 16.304 52.5105 16.56C52.8412 16.816 53.2252 16.944 53.6625 16.944C54.2812 16.944 54.8305 16.7147 55.3105 16.256C55.8012 15.7973 56.0465 15.2587 56.0465 14.64C55.5878 14.2773 54.9478 14.096 54.1265 14.096C53.5292 14.096 53.0278 14.24 52.6225 14.528C52.2278 14.816 52.0305 15.1733 52.0305 15.6ZM53.9345 9.904C55.0225 9.904 55.8812 10.1973 56.5105 10.784C57.1398 11.36 57.4545 12.1547 57.4545 13.168V18H56.0465V16.912H55.9825C55.3745 17.808 54.5638 18.256 53.5505 18.256C52.6865 18.256 51.9612 18 51.3745 17.488C50.7985 16.976 50.5105 16.336 50.5105 15.568C50.5105 14.7573 50.8145 14.112 51.4225 13.632C52.0412 13.152 52.8625 12.912 53.8865 12.912C54.7612 12.912 55.4812 13.072 56.0465 13.392V13.056C56.0465 12.544 55.8438 12.112 55.4385 11.76C55.0332 11.3973 54.5585 11.216 54.0145 11.216C53.1932 11.216 52.5425 11.5627 52.0625 12.256L50.7665 11.44C51.4812 10.416 52.5372 9.904 53.9345 9.904ZM66.0108 18H64.2348L61.7868 14.304L60.5868 15.488V18H59.1148V6.544H60.5868V13.6L63.9788 10.16H65.8668V10.224L62.8108 13.264L66.0108 17.936V18ZM69.9531 18.128C69.3131 18.128 68.7798 17.9307 68.3531 17.536C67.9371 17.1413 67.7238 16.592 67.7131 15.888V11.504H66.3371V10.16H67.7131V7.76H69.1851V10.16H71.1051V11.504H69.1851V15.408C69.1851 15.9307 69.2865 16.288 69.4891 16.48C69.6918 16.6613 69.9211 16.752 70.1771 16.752C70.2945 16.752 70.4065 16.7413 70.5131 16.72C70.6305 16.688 70.7371 16.6507 70.8331 16.608L71.2971 17.92C70.9131 18.0587 70.4651 18.128 69.9531 18.128ZM80.165 18.256C79.589 18.256 79.061 18.1333 78.581 17.888C78.1117 17.6427 77.749 17.3173 77.493 16.912H77.429V18H76.021V6.544H77.493V10.16L77.429 11.248H77.493C77.749 10.8427 78.1117 10.5173 78.581 10.272C79.061 10.0267 79.589 9.904 80.165 9.904C81.1997 9.904 82.0743 10.3093 82.789 11.12C83.525 11.9413 83.893 12.928 83.893 14.08C83.893 15.2427 83.525 16.2293 82.789 17.04C82.0743 17.8507 81.1997 18.256 80.165 18.256ZM79.925 16.912C80.629 16.912 81.221 16.6453 81.701 16.112C82.181 15.5893 82.421 14.912 82.421 14.08C82.421 13.2587 82.181 12.5813 81.701 12.048C81.221 11.5147 80.629 11.248 79.925 11.248C79.2103 11.248 78.613 11.5147 78.133 12.048C77.6637 12.5813 77.429 13.2587 77.429 14.08C77.429 14.912 77.6637 15.5947 78.133 16.128C78.613 16.6507 79.2103 16.912 79.925 16.912ZM84.7918 14.08C84.7918 12.8747 85.1704 11.8773 85.9278 11.088C86.6958 10.2987 87.6611 9.904 88.8238 9.904C89.9864 9.904 90.9464 10.2987 91.7038 11.088C92.4718 11.8773 92.8558 12.8747 92.8558 14.08C92.8558 15.296 92.4718 16.2933 91.7038 17.072C90.9464 17.8613 89.9864 18.256 88.8238 18.256C87.6611 18.256 86.6958 17.8613 85.9278 17.072C85.1704 16.2827 84.7918 15.2853 84.7918 14.08ZM86.2638 14.08C86.2638 14.9227 86.5091 15.6053 86.9998 16.128C87.4904 16.6507 88.0984 16.912 88.8238 16.912C89.5491 16.912 90.1571 16.6507 90.6478 16.128C91.1384 15.6053 91.3838 14.9227 91.3838 14.08C91.3838 13.248 91.1384 12.5707 90.6478 12.048C90.1464 11.5147 89.5384 11.248 88.8238 11.248C88.1091 11.248 87.5011 11.5147 86.9998 12.048C86.5091 12.5707 86.2638 13.248 86.2638 14.08ZM97.0625 18.128C96.4225 18.128 95.8892 17.9307 95.4625 17.536C95.0465 17.1413 94.8332 16.592 94.8225 15.888V11.504H93.4465V10.16H94.8225V7.76H96.2945V10.16H98.2145V11.504H96.2945V15.408C96.2945 15.9307 96.3958 16.288 96.5985 16.48C96.8012 16.6613 97.0305 16.752 97.2865 16.752C97.4038 16.752 97.5158 16.7413 97.6225 16.72C97.7398 16.688 97.8465 16.6507 97.9425 16.608L98.4065 17.92C98.0225 18.0587 97.5745 18.128 97.0625 18.128Z" fill="black"/>
</svg>
