<svg width="496" height="24" viewBox="0 0 496 24" fill="none" xmlns="http://www.w3.org/2000/svg">
<rect y="6" width="12" height="12" rx="6" fill="#00BAFC"/>
<path d="M25.04 18.256C24.464 18.256 23.936 18.1333 23.456 17.888C22.9867 17.6427 22.624 17.3173 22.368 16.912H22.304V18H20.896V6.544H22.368V10.16L22.304 11.248H22.368C22.624 10.8427 22.9867 10.5173 23.456 10.272C23.936 10.0267 24.464 9.904 25.04 9.904C26.0747 9.904 26.9493 10.3093 27.664 11.12C28.4 11.9413 28.768 12.928 28.768 14.08C28.768 15.2427 28.4 16.2293 27.664 17.04C26.9493 17.8507 26.0747 18.256 25.04 18.256ZM24.8 16.912C25.504 16.912 26.096 16.6453 26.576 16.112C27.056 15.5893 27.296 14.912 27.296 14.08C27.296 13.2587 27.056 12.5813 26.576 12.048C26.096 11.5147 25.504 11.248 24.8 11.248C24.0853 11.248 23.488 11.5147 23.008 12.048C22.5387 12.5813 22.304 13.2587 22.304 14.08C22.304 14.912 22.5387 15.5947 23.008 16.128C23.488 16.6507 24.0853 16.912 24.8 16.912ZM31.1868 15.6C31.1868 15.984 31.3468 16.304 31.6668 16.56C31.9974 16.816 32.3814 16.944 32.8188 16.944C33.4374 16.944 33.9868 16.7147 34.4668 16.256C34.9574 15.7973 35.2028 15.2587 35.2028 14.64C34.7441 14.2773 34.1041 14.096 33.2828 14.096C32.6854 14.096 32.1841 14.24 31.7788 14.528C31.3841 14.816 31.1868 15.1733 31.1868 15.6ZM33.0908 9.904C34.1788 9.904 35.0374 10.1973 35.6668 10.784C36.2961 11.36 36.6108 12.1547 36.6108 13.168V18H35.2028V16.912H35.1388C34.5308 17.808 33.7201 18.256 32.7068 18.256C31.8428 18.256 31.1174 18 30.5308 17.488C29.9548 16.976 29.6668 16.336 29.6668 15.568C29.6668 14.7573 29.9708 14.112 30.5788 13.632C31.1974 13.152 32.0188 12.912 33.0428 12.912C33.9174 12.912 34.6374 13.072 35.2028 13.392V13.056C35.2028 12.544 35.0001 12.112 34.5948 11.76C34.1894 11.3973 33.7148 11.216 33.1708 11.216C32.3494 11.216 31.6988 11.5627 31.2188 12.256L29.9228 11.44C30.6374 10.416 31.6934 9.904 33.0908 9.904ZM39.743 6.544V18H38.271V6.544H39.743ZM43.0086 6.544V18H41.5366V6.544H43.0086ZM45.7961 15.6C45.7961 15.984 45.9561 16.304 46.2761 16.56C46.6068 16.816 46.9908 16.944 47.4281 16.944C48.0468 16.944 48.5961 16.7147 49.0761 16.256C49.5668 15.7973 49.8121 15.2587 49.8121 14.64C49.3535 14.2773 48.7135 14.096 47.8921 14.096C47.2948 14.096 46.7935 14.24 46.3881 14.528C45.9935 14.816 45.7961 15.1733 45.7961 15.6ZM47.7001 9.904C48.7881 9.904 49.6468 10.1973 50.2761 10.784C50.9055 11.36 51.2201 12.1547 51.2201 13.168V18H49.8121V16.912H49.7481C49.1401 17.808 48.3295 18.256 47.3161 18.256C46.4521 18.256 45.7268 18 45.1401 17.488C44.5641 16.976 44.2761 16.336 44.2761 15.568C44.2761 14.7573 44.5801 14.112 45.1881 13.632C45.8068 13.152 46.6281 12.912 47.6521 12.912C48.5268 12.912 49.2468 13.072 49.8121 13.392V13.056C49.8121 12.544 49.6095 12.112 49.2041 11.76C48.7988 11.3973 48.3241 11.216 47.7801 11.216C46.9588 11.216 46.3081 11.5627 45.8281 12.256L44.5321 11.44C45.2468 10.416 46.3028 9.904 47.7001 9.904ZM54.3524 18H52.8804V10.16H54.2884V11.44H54.3524C54.5017 11.024 54.8057 10.672 55.2644 10.384C55.7337 10.0853 56.1924 9.936 56.6404 9.936C57.067 9.936 57.4297 10 57.7284 10.128L57.2804 11.552C57.099 11.4773 56.811 11.44 56.4164 11.44C55.8617 11.44 55.3764 11.664 54.9604 12.112C54.555 12.56 54.3524 13.0827 54.3524 13.68V18ZM69.2165 10.16L64.3045 21.456H62.7845L64.6085 17.504L61.3765 10.16H62.9765L65.3125 15.792H65.3445L67.6165 10.16H69.2165ZM72.0813 7.456C72.0813 7.744 71.9799 7.98933 71.7773 8.192C71.5746 8.39467 71.3293 8.496 71.0413 8.496C70.7533 8.496 70.5079 8.39467 70.3053 8.192C70.1026 7.98933 70.0013 7.744 70.0013 7.456C70.0013 7.168 70.1026 6.92267 70.3053 6.72C70.5079 6.51733 70.7533 6.416 71.0413 6.416C71.3293 6.416 71.5746 6.51733 71.7773 6.72C71.9799 6.92267 72.0813 7.168 72.0813 7.456ZM71.7773 10.16V18H70.3053V10.16H71.7773ZM77.1348 16.912C77.8601 16.912 78.4521 16.6507 78.9108 16.128C79.3908 15.6053 79.6308 14.9227 79.6308 14.08C79.6308 13.2587 79.3908 12.5813 78.9108 12.048C78.4414 11.5147 77.8494 11.248 77.1348 11.248C76.4308 11.248 75.8388 11.5147 75.3588 12.048C74.8788 12.5813 74.6388 13.2587 74.6388 14.08C74.6388 14.912 74.8788 15.5893 75.3588 16.112C75.8388 16.6453 76.4308 16.912 77.1348 16.912ZM77.0868 21.712C76.6494 21.712 76.2388 21.6533 75.8548 21.536C75.4708 21.4293 75.1188 21.2747 74.7988 21.072C74.4894 20.8693 74.2228 20.6293 73.9988 20.352C73.7748 20.0747 73.6041 19.7653 73.4868 19.424L74.8788 18.848C75.0388 19.3067 75.3161 19.6747 75.7108 19.952C76.1054 20.2293 76.5641 20.368 77.0868 20.368C77.8868 20.368 78.5108 20.128 78.9588 19.648C79.4068 19.168 79.6308 18.5067 79.6308 17.664V16.912H79.5668C79.2894 17.328 78.9108 17.6587 78.4308 17.904C77.9614 18.1387 77.4494 18.256 76.8948 18.256C75.8708 18.256 74.9908 17.856 74.2548 17.056C73.5294 16.2347 73.1668 15.2427 73.1668 14.08C73.1668 12.9173 73.5294 11.9307 74.2548 11.12C74.9908 10.3093 75.8708 9.904 76.8948 9.904C77.4494 9.904 77.9614 10.0267 78.4308 10.272C78.9108 10.5067 79.2894 10.832 79.5668 11.248H79.6308V10.16H81.0388V17.664C81.0388 18.9227 80.6814 19.9093 79.9668 20.624C79.2414 21.3493 78.2814 21.712 77.0868 21.712ZM83.3935 10.032L82.7055 9.584L83.5055 8.368C83.2815 8.32533 83.0895 8.21333 82.9295 8.032C82.7802 7.85067 82.7055 7.632 82.7055 7.376C82.7055 7.06667 82.8122 6.81067 83.0255 6.608C83.2388 6.39467 83.4948 6.288 83.7935 6.288C84.1028 6.288 84.3588 6.39467 84.5615 6.608C84.7748 6.81067 84.8815 7.06667 84.8815 7.376C84.8815 7.67467 84.7695 8 84.5455 8.352L83.3935 10.032ZM87.9719 7.456C87.9719 7.744 87.8705 7.98933 87.6679 8.192C87.4652 8.39467 87.2199 8.496 86.9319 8.496C86.6439 8.496 86.3985 8.39467 86.1959 8.192C85.9932 7.98933 85.8919 7.744 85.8919 7.456C85.8919 7.168 85.9932 6.92267 86.1959 6.72C86.3985 6.51733 86.6439 6.416 86.9319 6.416C87.2199 6.416 87.4652 6.51733 87.6679 6.72C87.8705 6.92267 87.9719 7.168 87.9719 7.456ZM87.6679 10.16V18H86.1959V10.16H87.6679ZM95.5835 15.824C95.5835 16.5067 95.2848 17.0827 94.6875 17.552C94.0902 18.0213 93.3382 18.256 92.4315 18.256C91.6422 18.256 90.9488 18.0533 90.3515 17.648C89.7542 17.232 89.3275 16.688 89.0715 16.016L90.3835 15.456C90.5755 15.9253 90.8528 16.2933 91.2155 16.56C91.5888 16.816 91.9942 16.944 92.4315 16.944C92.9008 16.944 93.2902 16.8427 93.5995 16.64C93.9195 16.4373 94.0795 16.1973 94.0795 15.92C94.0795 15.4187 93.6955 15.0507 92.9275 14.816L91.5835 14.48C90.0582 14.096 89.2955 13.36 89.2955 12.272C89.2955 11.5573 89.5835 10.9867 90.1595 10.56C90.7462 10.1227 91.4928 9.904 92.3995 9.904C93.0928 9.904 93.7168 10.0693 94.2715 10.4C94.8368 10.7307 95.2315 11.1733 95.4555 11.728L94.1435 12.272C93.9942 11.9413 93.7488 11.6853 93.4075 11.504C93.0768 11.312 92.7035 11.216 92.2875 11.216C91.9035 11.216 91.5568 11.312 91.2475 11.504C90.9488 11.696 90.7995 11.9307 90.7995 12.208C90.7995 12.656 91.2208 12.976 92.0635 13.168L93.2475 13.472C94.8048 13.856 95.5835 14.64 95.5835 15.824ZM96.8648 6.544H98.3368V10.16L98.2728 11.248H98.3368C98.5608 10.864 98.9021 10.544 99.3608 10.288C99.8301 10.032 100.315 9.904 100.817 9.904C101.777 9.904 102.513 10.1813 103.025 10.736C103.547 11.28 103.809 12.0587 103.809 13.072V18H102.337V13.36C102.337 11.952 101.713 11.248 100.465 11.248C99.8674 11.248 99.3608 11.4987 98.9448 12C98.5394 12.4907 98.3368 13.0667 98.3368 13.728V18H96.8648V6.544Z" fill="black"/>
</svg>
