<svg width="125" height="24" viewBox="0 0 125 24" fill="none" xmlns="http://www.w3.org/2000/svg">
<rect y="6" width="12" height="12" rx="6" fill="#00BAFC"/>
<path d="M27.904 10.16L22.992 21.456H21.472L23.296 17.504L20.064 10.16H21.664L24 15.792H24.032L26.304 10.16H27.904ZM32.0723 18.256C30.9203 18.256 29.9709 17.8613 29.2243 17.072C28.4776 16.2827 28.1043 15.2853 28.1043 14.08C28.1043 12.8853 28.4669 11.8933 29.1923 11.104C29.9176 10.304 30.8456 9.904 31.9763 9.904C33.1389 9.904 34.0616 10.2827 34.7443 11.04C35.4376 11.7867 35.7843 12.8373 35.7843 14.192L35.7683 14.352H29.6083C29.6296 15.12 29.8856 15.7387 30.3763 16.208C30.8669 16.6773 31.4536 16.912 32.1363 16.912C33.0749 16.912 33.8109 16.4427 34.3443 15.504L35.6562 16.144C35.3043 16.8053 34.8136 17.3227 34.1843 17.696C33.5656 18.0693 32.8616 18.256 32.0723 18.256ZM29.7203 13.136H34.2163C34.1736 12.592 33.9496 12.144 33.5443 11.792C33.1496 11.4293 32.6163 11.248 31.9443 11.248C31.3896 11.248 30.9096 11.4187 30.5043 11.76C30.1096 12.1013 29.8483 12.56 29.7203 13.136ZM40 18.128C39.36 18.128 38.8267 17.9307 38.4 17.536C37.984 17.1413 37.7707 16.592 37.76 15.888V11.504H36.384V10.16H37.76V7.76H39.232V10.16H41.152V11.504H39.232V15.408C39.232 15.9307 39.3333 16.288 39.536 16.48C39.7387 16.6613 39.968 16.752 40.224 16.752C40.3413 16.752 40.4533 16.7413 40.56 16.72C40.6773 16.688 40.784 16.6507 40.88 16.608L41.344 17.92C40.96 18.0587 40.512 18.128 40 18.128ZM49.5264 18H47.7504L45.3024 14.304L44.1024 15.488V18H42.6304V6.544H44.1024V13.6L47.4944 10.16H49.3824V10.224L46.3264 13.264L49.5264 17.936V18ZM51.2805 15.6C51.2805 15.984 51.4405 16.304 51.7605 16.56C52.0912 16.816 52.4752 16.944 52.9125 16.944C53.5312 16.944 54.0805 16.7147 54.5605 16.256C55.0512 15.7973 55.2965 15.2587 55.2965 14.64C54.8378 14.2773 54.1978 14.096 53.3765 14.096C52.7792 14.096 52.2778 14.24 51.8725 14.528C51.4778 14.816 51.2805 15.1733 51.2805 15.6ZM53.1845 9.904C54.2725 9.904 55.1312 10.1973 55.7605 10.784C56.3898 11.36 56.7045 12.1547 56.7045 13.168V18H55.2965V16.912H55.2325C54.6245 17.808 53.8138 18.256 52.8005 18.256C51.9365 18.256 51.2112 18 50.6245 17.488C50.0485 16.976 49.7605 16.336 49.7605 15.568C49.7605 14.7573 50.0645 14.112 50.6725 13.632C51.2912 13.152 52.1125 12.912 53.1365 12.912C54.0112 12.912 54.7312 13.072 55.2965 13.392V13.056C55.2965 12.544 55.0938 12.112 54.6885 11.76C54.2832 11.3973 53.8085 11.216 53.2645 11.216C52.4432 11.216 51.7925 11.5627 51.3125 12.256L50.0165 11.44C50.7312 10.416 51.7872 9.904 53.1845 9.904ZM64.473 18H58.137V16.72L62.601 11.504H58.265V10.16H64.409V11.44L59.945 16.656H64.473V18ZM67.9406 7.456C67.9406 7.744 67.8393 7.98933 67.6366 8.192C67.434 8.39467 67.1886 8.496 66.9006 8.496C66.6126 8.496 66.3673 8.39467 66.1646 8.192C65.962 7.98933 65.8606 7.744 65.8606 7.456C65.8606 7.168 65.962 6.92267 66.1646 6.72C66.3673 6.51733 66.6126 6.416 66.9006 6.416C67.1886 6.416 67.434 6.51733 67.6366 6.72C67.8393 6.92267 67.9406 7.168 67.9406 7.456ZM67.6366 10.16V18H66.1646V10.16H67.6366ZM73.6963 18.256C73.1203 18.256 72.5923 18.1333 72.1123 17.888C71.6429 17.6427 71.2803 17.3173 71.0243 16.912H70.9603V18H69.5523V6.544H71.0243V10.16L70.9603 11.248H71.0243C71.2803 10.8427 71.6429 10.5173 72.1123 10.272C72.5923 10.0267 73.1203 9.904 73.6963 9.904C74.7309 9.904 75.6056 10.3093 76.3203 11.12C77.0563 11.9413 77.4243 12.928 77.4243 14.08C77.4243 15.2427 77.0563 16.2293 76.3203 17.04C75.6056 17.8507 74.7309 18.256 73.6963 18.256ZM73.4563 16.912C74.1603 16.912 74.7523 16.6453 75.2323 16.112C75.7123 15.5893 75.9523 14.912 75.9523 14.08C75.9523 13.2587 75.7123 12.5813 75.2323 12.048C74.7523 11.5147 74.1603 11.248 73.4563 11.248C72.7416 11.248 72.1443 11.5147 71.6643 12.048C71.1949 12.5813 70.9603 13.2587 70.9603 14.08C70.9603 14.912 71.1949 15.5947 71.6643 16.128C72.1443 16.6507 72.7416 16.912 73.4563 16.912ZM86.4306 18.256C85.8546 18.256 85.3266 18.1333 84.8466 17.888C84.3773 17.6427 84.0146 17.3173 83.7586 16.912H83.6946V18H82.2866V6.544H83.7586V10.16L83.6946 11.248H83.7586C84.0146 10.8427 84.3773 10.5173 84.8466 10.272C85.3266 10.0267 85.8546 9.904 86.4306 9.904C87.4653 9.904 88.34 10.3093 89.0546 11.12C89.7906 11.9413 90.1586 12.928 90.1586 14.08C90.1586 15.2427 89.7906 16.2293 89.0546 17.04C88.34 17.8507 87.4653 18.256 86.4306 18.256ZM86.1906 16.912C86.8946 16.912 87.4866 16.6453 87.9666 16.112C88.4466 15.5893 88.6866 14.912 88.6866 14.08C88.6866 13.2587 88.4466 12.5813 87.9666 12.048C87.4866 11.5147 86.8946 11.248 86.1906 11.248C85.476 11.248 84.8786 11.5147 84.3986 12.048C83.9293 12.5813 83.6946 13.2587 83.6946 14.08C83.6946 14.912 83.9293 15.5947 84.3986 16.128C84.8786 16.6507 85.476 16.912 86.1906 16.912ZM95.0254 18.256C93.8734 18.256 92.924 17.8613 92.1774 17.072C91.4307 16.2827 91.0574 15.2853 91.0574 14.08C91.0574 12.8853 91.42 11.8933 92.1454 11.104C92.8707 10.304 93.7987 9.904 94.9294 9.904C96.092 9.904 97.0147 10.2827 97.6974 11.04C98.3907 11.7867 98.7374 12.8373 98.7374 14.192L98.7214 14.352H92.5614C92.5827 15.12 92.8387 15.7387 93.3294 16.208C93.82 16.6773 94.4067 16.912 95.0894 16.912C96.028 16.912 96.764 16.4427 97.2974 15.504L98.6094 16.144C98.2574 16.8053 97.7667 17.3227 97.1374 17.696C96.5187 18.0693 95.8147 18.256 95.0254 18.256ZM92.6734 13.136H97.1694C97.1267 12.592 96.9027 12.144 96.4974 11.792C96.1027 11.4293 95.5694 11.248 94.8974 11.248C94.3427 11.248 93.8627 11.4187 93.4574 11.76C93.0627 12.1013 92.8014 12.56 92.6734 13.136ZM101.556 18H100.084V10.16H101.492V11.44H101.556C101.705 11.024 102.009 10.672 102.468 10.384C102.937 10.0853 103.396 9.936 103.844 9.936C104.27 9.936 104.633 10 104.932 10.128L104.484 11.552C104.302 11.4773 104.014 11.44 103.62 11.44C103.065 11.44 102.58 11.664 102.164 12.112C101.758 12.56 101.556 13.0827 101.556 13.68V18ZM107.8 7.456C107.8 7.744 107.699 7.98933 107.496 8.192C107.293 8.39467 107.048 8.496 106.76 8.496C106.472 8.496 106.227 8.39467 106.024 8.192C105.821 7.98933 105.72 7.744 105.72 7.456C105.72 7.168 105.821 6.92267 106.024 6.72C106.227 6.51733 106.472 6.416 106.76 6.416C107.048 6.416 107.293 6.51733 107.496 6.72C107.699 6.92267 107.8 7.168 107.8 7.456ZM107.496 10.16V18H106.024V10.16H107.496ZM115.412 15.824C115.412 16.5067 115.113 17.0827 114.516 17.552C113.918 18.0213 113.166 18.256 112.26 18.256C111.47 18.256 110.777 18.0533 110.18 17.648C109.582 17.232 109.156 16.688 108.9 16.016L110.212 15.456C110.404 15.9253 110.681 16.2933 111.044 16.56C111.417 16.816 111.822 16.944 112.26 16.944C112.729 16.944 113.118 16.8427 113.428 16.64C113.748 16.4373 113.908 16.1973 113.908 15.92C113.908 15.4187 113.524 15.0507 112.756 14.816L111.412 14.48C109.886 14.096 109.124 13.36 109.124 12.272C109.124 11.5573 109.412 10.9867 109.988 10.56C110.574 10.1227 111.321 9.904 112.228 9.904C112.921 9.904 113.545 10.0693 114.1 10.4C114.665 10.7307 115.06 11.1733 115.284 11.728L113.972 12.272C113.822 11.9413 113.577 11.6853 113.236 11.504C112.905 11.312 112.532 11.216 112.116 11.216C111.732 11.216 111.385 11.312 111.076 11.504C110.777 11.696 110.628 11.9307 110.628 12.208C110.628 12.656 111.049 12.976 111.892 13.168L113.076 13.472C114.633 13.856 115.412 14.64 115.412 15.824ZM116.693 6.544H118.165V10.16L118.101 11.248H118.165C118.389 10.864 118.73 10.544 119.189 10.288C119.658 10.032 120.144 9.904 120.645 9.904C121.605 9.904 122.341 10.1813 122.853 10.736C123.376 11.28 123.637 12.0587 123.637 13.072V18H122.165V13.36C122.165 11.952 121.541 11.248 120.293 11.248C119.696 11.248 119.189 11.4987 118.773 12C118.368 12.4907 118.165 13.0667 118.165 13.728V18H116.693V6.544Z" fill="black"/>
</svg>
