<svg width="478" height="24" viewBox="0 0 478 24" fill="none" xmlns="http://www.w3.org/2000/svg">
<rect y="6" width="12" height="12" rx="6" fill="#00BAFC"/>
<path d="M25.056 7.952V18H23.584V7.952H20.384V6.544H28.256V7.952H25.056ZM31.7754 18.256C30.6234 18.256 29.674 17.8613 28.9274 17.072C28.1807 16.2827 27.8074 15.2853 27.8074 14.08C27.8074 12.8853 28.17 11.8933 28.8954 11.104C29.6207 10.304 30.5487 9.904 31.6794 9.904C32.842 9.904 33.7647 10.2827 34.4474 11.04C35.1407 11.7867 35.4874 12.8373 35.4874 14.192L35.4714 14.352H29.3114C29.3327 15.12 29.5887 15.7387 30.0794 16.208C30.57 16.6773 31.1567 16.912 31.8394 16.912C32.778 16.912 33.514 16.4427 34.0474 15.504L35.3594 16.144C35.0074 16.8053 34.5167 17.3227 33.8874 17.696C33.2687 18.0693 32.5647 18.256 31.7754 18.256ZM29.4234 13.136H33.9194C33.8767 12.592 33.6527 12.144 33.2474 11.792C32.8527 11.4293 32.3194 11.248 31.6474 11.248C31.0927 11.248 30.6127 11.4187 30.2074 11.76C29.8127 12.1013 29.5514 12.56 29.4234 13.136ZM38.3055 6.544V18H36.8335V6.544H38.3055ZM43.541 18.256C42.389 18.256 41.4397 17.8613 40.693 17.072C39.9463 16.2827 39.573 15.2853 39.573 14.08C39.573 12.8853 39.9357 11.8933 40.661 11.104C41.3863 10.304 42.3143 9.904 43.445 9.904C44.6077 9.904 45.5303 10.2827 46.213 11.04C46.9063 11.7867 47.253 12.8373 47.253 14.192L47.237 14.352H41.077C41.0983 15.12 41.3543 15.7387 41.845 16.208C42.3357 16.6773 42.9223 16.912 43.605 16.912C44.5437 16.912 45.2797 16.4427 45.813 15.504L47.125 16.144C46.773 16.8053 46.2823 17.3227 45.653 17.696C45.0343 18.0693 44.3303 18.256 43.541 18.256ZM41.189 13.136H45.685C45.6423 12.592 45.4183 12.144 45.013 11.792C44.6183 11.4293 44.085 11.248 43.413 11.248C42.8583 11.248 42.3783 11.4187 41.973 11.76C41.5783 12.1013 41.317 12.56 41.189 13.136ZM52.1973 16.912C52.9226 16.912 53.5146 16.6507 53.9733 16.128C54.4533 15.6053 54.6933 14.9227 54.6933 14.08C54.6933 13.2587 54.4533 12.5813 53.9733 12.048C53.5039 11.5147 52.9119 11.248 52.1973 11.248C51.4933 11.248 50.9013 11.5147 50.4213 12.048C49.9413 12.5813 49.7013 13.2587 49.7013 14.08C49.7013 14.912 49.9413 15.5893 50.4213 16.112C50.9013 16.6453 51.4933 16.912 52.1973 16.912ZM52.1493 21.712C51.7119 21.712 51.3013 21.6533 50.9173 21.536C50.5333 21.4293 50.1813 21.2747 49.8613 21.072C49.5519 20.8693 49.2853 20.6293 49.0613 20.352C48.8373 20.0747 48.6666 19.7653 48.5493 19.424L49.9413 18.848C50.1013 19.3067 50.3786 19.6747 50.7733 19.952C51.1679 20.2293 51.6266 20.368 52.1493 20.368C52.9493 20.368 53.5733 20.128 54.0213 19.648C54.4693 19.168 54.6933 18.5067 54.6933 17.664V16.912H54.6293C54.3519 17.328 53.9733 17.6587 53.4933 17.904C53.0239 18.1387 52.5119 18.256 51.9573 18.256C50.9333 18.256 50.0533 17.856 49.3173 17.056C48.5919 16.2347 48.2293 15.2427 48.2293 14.08C48.2293 12.9173 48.5919 11.9307 49.3173 11.12C50.0533 10.3093 50.9333 9.904 51.9573 9.904C52.5119 9.904 53.0239 10.0267 53.4933 10.272C53.9733 10.5067 54.3519 10.832 54.6293 11.248H54.6933V10.16H56.1013V17.664C56.1013 18.9227 55.7439 19.9093 55.0293 20.624C54.3039 21.3493 53.3439 21.712 52.1493 21.712ZM59.368 18H57.896V10.16H59.304V11.44H59.368C59.5173 11.024 59.8213 10.672 60.28 10.384C60.7493 10.0853 61.208 9.936 61.656 9.936C62.0827 9.936 62.4453 10 62.744 10.128L62.296 11.552C62.1147 11.4773 61.8267 11.44 61.432 11.44C60.8773 11.44 60.392 11.664 59.976 12.112C59.5707 12.56 59.368 13.0827 59.368 13.68V18ZM64.468 15.6C64.468 15.984 64.628 16.304 64.948 16.56C65.2787 16.816 65.6627 16.944 66.1 16.944C66.7187 16.944 67.268 16.7147 67.748 16.256C68.2387 15.7973 68.484 15.2587 68.484 14.64C68.0253 14.2773 67.3853 14.096 66.564 14.096C65.9667 14.096 65.4653 14.24 65.06 14.528C64.6653 14.816 64.468 15.1733 64.468 15.6ZM66.372 9.904C67.46 9.904 68.3187 10.1973 68.948 10.784C69.5773 11.36 69.892 12.1547 69.892 13.168V18H68.484V16.912H68.42C67.812 17.808 67.0013 18.256 65.988 18.256C65.124 18.256 64.3987 18 63.812 17.488C63.236 16.976 62.948 16.336 62.948 15.568C62.948 14.7573 63.252 14.112 63.86 13.632C64.4787 13.152 65.3 12.912 66.324 12.912C67.1987 12.912 67.9187 13.072 68.484 13.392V13.056C68.484 12.544 68.2813 12.112 67.876 11.76C67.4707 11.3973 66.996 11.216 66.452 11.216C65.6307 11.216 64.98 11.5627 64.5 12.256L63.204 11.44C63.9187 10.416 64.9747 9.904 66.372 9.904ZM73.0243 18H71.5523V10.16H72.9603V11.248H73.0243C73.2483 10.864 73.5896 10.544 74.0483 10.288C74.5176 10.032 74.9816 9.904 75.4403 9.904C76.0163 9.904 76.5229 10.0373 76.9603 10.304C77.3976 10.5707 77.7176 10.9387 77.9203 11.408C78.5709 10.4053 79.4723 9.904 80.6243 9.904C81.5309 9.904 82.2296 10.1813 82.7203 10.736C83.2109 11.2907 83.4563 12.08 83.4563 13.104V18H81.9843V13.328C81.9843 12.592 81.8509 12.064 81.5843 11.744C81.3176 11.4133 80.8696 11.248 80.2403 11.248C79.6749 11.248 79.2003 11.488 78.8163 11.968C78.4323 12.448 78.2403 13.0133 78.2403 13.664V18H76.7683V13.328C76.7683 12.592 76.6349 12.064 76.3683 11.744C76.1016 11.4133 75.6536 11.248 75.0243 11.248C74.4589 11.248 73.9843 11.488 73.6003 11.968C73.2163 12.448 73.0243 13.0133 73.0243 13.664V18ZM88.2449 14.08C88.2449 12.8747 88.6235 11.8773 89.3809 11.088C90.1489 10.2987 91.1142 9.904 92.2769 9.904C93.4395 9.904 94.3995 10.2987 95.1569 11.088C95.9249 11.8773 96.3089 12.8747 96.3089 14.08C96.3089 15.296 95.9249 16.2933 95.1569 17.072C94.3995 17.8613 93.4395 18.256 92.2769 18.256C91.1142 18.256 90.1489 17.8613 89.3809 17.072C88.6235 16.2827 88.2449 15.2853 88.2449 14.08ZM89.7169 14.08C89.7169 14.9227 89.9622 15.6053 90.4529 16.128C90.9435 16.6507 91.5515 16.912 92.2769 16.912C93.0022 16.912 93.6102 16.6507 94.1009 16.128C94.5915 15.6053 94.8369 14.9227 94.8369 14.08C94.8369 13.248 94.5915 12.5707 94.1009 12.048C93.5995 11.5147 92.9915 11.248 92.2769 11.248C91.5622 11.248 90.9542 11.5147 90.4529 12.048C89.9622 12.5707 89.7169 13.248 89.7169 14.08ZM99.0399 6.544V18H97.5679V6.544H99.0399ZM104.275 16.912C105.001 16.912 105.593 16.6507 106.051 16.128C106.531 15.6053 106.771 14.9227 106.771 14.08C106.771 13.2587 106.531 12.5813 106.051 12.048C105.582 11.5147 104.99 11.248 104.275 11.248C103.571 11.248 102.979 11.5147 102.499 12.048C102.019 12.5813 101.779 13.2587 101.779 14.08C101.779 14.912 102.019 15.5893 102.499 16.112C102.979 16.6453 103.571 16.912 104.275 16.912ZM104.035 18.256C103.011 18.256 102.131 17.8507 101.395 17.04C100.67 16.2187 100.307 15.232 100.307 14.08C100.307 12.928 100.67 11.9413 101.395 11.12C102.131 10.3093 103.011 9.904 104.035 9.904C104.611 9.904 105.134 10.0267 105.603 10.272C106.083 10.5173 106.451 10.8427 106.707 11.248H106.771L106.707 10.16V6.544H108.179V18H106.771V16.912H106.707C106.451 17.3173 106.083 17.6427 105.603 17.888C105.134 18.1333 104.611 18.256 104.035 18.256ZM111.878 7.456C111.878 7.744 111.777 7.98933 111.574 8.192C111.371 8.39467 111.126 8.496 110.838 8.496C110.55 8.496 110.305 8.39467 110.102 8.192C109.899 7.98933 109.798 7.744 109.798 7.456C109.798 7.168 109.899 6.92267 110.102 6.72C110.305 6.51733 110.55 6.416 110.838 6.416C111.126 6.416 111.371 6.51733 111.574 6.72C111.777 6.92267 111.878 7.168 111.878 7.456ZM111.574 10.16V18H110.102V10.16H111.574ZM118.61 13.648H113.49V12.432H118.61V13.648ZM126.396 15.824C126.396 16.5067 126.097 17.0827 125.5 17.552C124.903 18.0213 124.151 18.256 123.244 18.256C122.455 18.256 121.761 18.0533 121.164 17.648C120.567 17.232 120.14 16.688 119.884 16.016L121.196 15.456C121.388 15.9253 121.665 16.2933 122.028 16.56C122.401 16.816 122.807 16.944 123.244 16.944C123.713 16.944 124.103 16.8427 124.412 16.64C124.732 16.4373 124.892 16.1973 124.892 15.92C124.892 15.4187 124.508 15.0507 123.74 14.816L122.396 14.48C120.871 14.096 120.108 13.36 120.108 12.272C120.108 11.5573 120.396 10.9867 120.972 10.56C121.559 10.1227 122.305 9.904 123.212 9.904C123.905 9.904 124.529 10.0693 125.084 10.4C125.649 10.7307 126.044 11.1733 126.268 11.728L124.956 12.272C124.807 11.9413 124.561 11.6853 124.22 11.504C123.889 11.312 123.516 11.216 123.1 11.216C122.716 11.216 122.369 11.312 122.06 11.504C121.761 11.696 121.612 11.9307 121.612 12.208C121.612 12.656 122.033 12.976 122.876 13.168L124.06 13.472C125.617 13.856 126.396 14.64 126.396 15.824ZM127.307 14.08C127.307 12.8747 127.686 11.8773 128.443 11.088C129.211 10.2987 130.177 9.904 131.339 9.904C132.502 9.904 133.462 10.2987 134.219 11.088C134.987 11.8773 135.371 12.8747 135.371 14.08C135.371 15.296 134.987 16.2933 134.219 17.072C133.462 17.8613 132.502 18.256 131.339 18.256C130.177 18.256 129.211 17.8613 128.443 17.072C127.686 16.2827 127.307 15.2853 127.307 14.08ZM128.779 14.08C128.779 14.9227 129.025 15.6053 129.515 16.128C130.006 16.6507 130.614 16.912 131.339 16.912C132.065 16.912 132.673 16.6507 133.163 16.128C133.654 15.6053 133.899 14.9227 133.899 14.08C133.899 13.248 133.654 12.5707 133.163 12.048C132.662 11.5147 132.054 11.248 131.339 11.248C130.625 11.248 130.017 11.5147 129.515 12.048C129.025 12.5707 128.779 13.248 128.779 14.08ZM139.578 18.128C138.938 18.128 138.405 17.9307 137.978 17.536C137.562 17.1413 137.349 16.592 137.338 15.888V11.504H135.962V10.16H137.338V7.76H138.81V10.16H140.73V11.504H138.81V15.408C138.81 15.9307 138.911 16.288 139.114 16.48C139.317 16.6613 139.546 16.752 139.802 16.752C139.919 16.752 140.031 16.7413 140.138 16.72C140.255 16.688 140.362 16.6507 140.458 16.608L140.922 17.92C140.538 18.0587 140.09 18.128 139.578 18.128ZM145.572 16.912C146.298 16.912 146.89 16.6507 147.348 16.128C147.828 15.6053 148.068 14.9227 148.068 14.08C148.068 13.2587 147.828 12.5813 147.348 12.048C146.879 11.5147 146.287 11.248 145.572 11.248C144.868 11.248 144.276 11.5147 143.796 12.048C143.316 12.5813 143.076 13.2587 143.076 14.08C143.076 14.912 143.316 15.5893 143.796 16.112C144.276 16.6453 144.868 16.912 145.572 16.912ZM145.332 18.256C144.308 18.256 143.428 17.8507 142.692 17.04C141.967 16.2187 141.604 15.232 141.604 14.08C141.604 12.928 141.967 11.9413 142.692 11.12C143.428 10.3093 144.308 9.904 145.332 9.904C145.908 9.904 146.431 10.0267 146.9 10.272C147.38 10.5173 147.748 10.8427 148.004 11.248H148.068L148.004 10.16V6.544H149.476V18H148.068V16.912H148.004C147.748 17.3173 147.38 17.6427 146.9 17.888C146.431 18.1333 145.908 18.256 145.332 18.256ZM153.175 7.456C153.175 7.744 153.074 7.98933 152.871 8.192C152.668 8.39467 152.423 8.496 152.135 8.496C151.847 8.496 151.602 8.39467 151.399 8.192C151.196 7.98933 151.095 7.744 151.095 7.456C151.095 7.168 151.196 6.92267 151.399 6.72C151.602 6.51733 151.847 6.416 152.135 6.416C152.423 6.416 152.668 6.51733 152.871 6.72C153.074 6.92267 153.175 7.168 153.175 7.456ZM152.871 10.16V18H151.399V10.16H152.871Z" fill="black"/>
</svg>
