<svg width="485" height="24" viewBox="0 0 485 24" fill="none" xmlns="http://www.w3.org/2000/svg">
<rect y="6" width="12" height="12" rx="6" fill="#00BAFC"/>
<path d="M20.448 14.08C20.448 12.8747 20.8267 11.8773 21.584 11.088C22.352 10.2987 23.3173 9.904 24.48 9.904C25.6427 9.904 26.6027 10.2987 27.36 11.088C28.128 11.8773 28.512 12.8747 28.512 14.08C28.512 15.296 28.128 16.2933 27.36 17.072C26.6027 17.8613 25.6427 18.256 24.48 18.256C23.3173 18.256 22.352 17.8613 21.584 17.072C20.8267 16.2827 20.448 15.2853 20.448 14.08ZM21.92 14.08C21.92 14.9227 22.1653 15.6053 22.656 16.128C23.1467 16.6507 23.7547 16.912 24.48 16.912C25.2053 16.912 25.8133 16.6507 26.304 16.128C26.7947 15.6053 27.04 14.9227 27.04 14.08C27.04 13.248 26.7947 12.5707 26.304 12.048C25.8027 11.5147 25.1947 11.248 24.48 11.248C23.7653 11.248 23.1573 11.5147 22.656 12.048C22.1653 12.5707 21.92 13.248 21.92 14.08ZM33.5009 18H32.0289L28.8609 10.16H30.4609L32.7649 16.24H32.7969L35.1329 10.16H36.7009L33.5009 18ZM36.9793 14.08C36.9793 12.8747 37.3579 11.8773 38.1153 11.088C38.8833 10.2987 39.8486 9.904 41.0113 9.904C42.1739 9.904 43.1339 10.2987 43.8913 11.088C44.6593 11.8773 45.0433 12.8747 45.0433 14.08C45.0433 15.296 44.6593 16.2933 43.8913 17.072C43.1339 17.8613 42.1739 18.256 41.0113 18.256C39.8486 18.256 38.8833 17.8613 38.1153 17.072C37.3579 16.2827 36.9793 15.2853 36.9793 14.08ZM38.4513 14.08C38.4513 14.9227 38.6966 15.6053 39.1873 16.128C39.6779 16.6507 40.2859 16.912 41.0113 16.912C41.7366 16.912 42.3446 16.6507 42.8353 16.128C43.3259 15.6053 43.5713 14.9227 43.5713 14.08C43.5713 13.248 43.3259 12.5707 42.8353 12.048C42.3339 11.5147 41.7259 11.248 41.0113 11.248C40.2966 11.248 39.6886 11.5147 39.1873 12.048C38.6966 12.5707 38.4513 13.248 38.4513 14.08ZM52.1761 18H45.8401V16.72L50.3041 11.504H45.9681V10.16H52.1121V11.44L47.6481 16.656H52.1761V18ZM61.2431 18.256C60.6671 18.256 60.1391 18.1333 59.6591 17.888C59.1898 17.6427 58.8271 17.3173 58.5711 16.912H58.5071V18H57.0991V6.544H58.5711V10.16L58.5071 11.248H58.5711C58.8271 10.8427 59.1898 10.5173 59.6591 10.272C60.1391 10.0267 60.6671 9.904 61.2431 9.904C62.2778 9.904 63.1525 10.3093 63.8671 11.12C64.6031 11.9413 64.9711 12.928 64.9711 14.08C64.9711 15.2427 64.6031 16.2293 63.8671 17.04C63.1525 17.8507 62.2778 18.256 61.2431 18.256ZM61.0031 16.912C61.7071 16.912 62.2991 16.6453 62.7791 16.112C63.2591 15.5893 63.4991 14.912 63.4991 14.08C63.4991 13.2587 63.2591 12.5813 62.7791 12.048C62.2991 11.5147 61.7071 11.248 61.0031 11.248C60.2885 11.248 59.6911 11.5147 59.2111 12.048C58.7418 12.5813 58.5071 13.2587 58.5071 14.08C58.5071 14.912 58.7418 15.5947 59.2111 16.128C59.6911 16.6507 60.2885 16.912 61.0031 16.912ZM68.1438 7.456C68.1438 7.744 68.0424 7.98933 67.8398 8.192C67.6371 8.39467 67.3918 8.496 67.1038 8.496C66.8158 8.496 66.5704 8.39467 66.3678 8.192C66.1651 7.98933 66.0638 7.744 66.0638 7.456C66.0638 7.168 66.1651 6.92267 66.3678 6.72C66.5704 6.51733 66.8158 6.416 67.1038 6.416C67.3918 6.416 67.6371 6.51733 67.8398 6.72C68.0424 6.92267 68.1438 7.168 68.1438 7.456ZM67.8398 10.16V18H66.3678V10.16H67.8398ZM71.2274 6.544V18H69.7554V6.544H71.2274ZM74.0149 15.6C74.0149 15.984 74.1749 16.304 74.4949 16.56C74.8255 16.816 75.2095 16.944 75.6469 16.944C76.2655 16.944 76.8149 16.7147 77.2949 16.256C77.7855 15.7973 78.0309 15.2587 78.0309 14.64C77.5722 14.2773 76.9322 14.096 76.1109 14.096C75.5135 14.096 75.0122 14.24 74.6069 14.528C74.2122 14.816 74.0149 15.1733 74.0149 15.6ZM75.9189 9.904C77.0069 9.904 77.8655 10.1973 78.4949 10.784C79.1242 11.36 79.4389 12.1547 79.4389 13.168V18H78.0309V16.912H77.9669C77.3589 17.808 76.5482 18.256 75.5349 18.256C74.6709 18.256 73.9455 18 73.3589 17.488C72.7829 16.976 72.4949 16.336 72.4949 15.568C72.4949 14.7573 72.7989 14.112 73.4069 13.632C74.0255 13.152 74.8469 12.912 75.8709 12.912C76.7455 12.912 77.4655 13.072 78.0309 13.392V13.056C78.0309 12.544 77.8282 12.112 77.4229 11.76C77.0175 11.3973 76.5429 11.216 75.9989 11.216C75.1775 11.216 74.5269 11.5627 74.0469 12.256L72.7509 11.44C73.4655 10.416 74.5215 9.904 75.9189 9.904ZM81.0991 10.16H82.5071V11.248H82.5711C82.7951 10.864 83.1365 10.544 83.5951 10.288C84.0645 10.032 84.5498 9.904 85.0511 9.904C86.0111 9.904 86.7471 10.1813 87.2591 10.736C87.7818 11.28 88.0431 12.0587 88.0431 13.072V18H86.5711V13.168C86.5391 11.888 85.8938 11.248 84.6351 11.248C84.0485 11.248 83.5578 11.488 83.1631 11.968C82.7685 12.4373 82.5711 13.0027 82.5711 13.664V18H81.0991V10.16ZM95.1906 7.456C95.1906 7.744 95.0893 7.98933 94.8866 8.192C94.684 8.39467 94.4386 8.496 94.1506 8.496C93.8626 8.496 93.6173 8.39467 93.4146 8.192C93.212 7.98933 93.1106 7.744 93.1106 7.456C93.1106 7.168 93.212 6.92267 93.4146 6.72C93.6173 6.51733 93.8626 6.416 94.1506 6.416C94.4386 6.416 94.684 6.51733 94.8866 6.72C95.0893 6.92267 95.1906 7.168 95.1906 7.456ZM94.8866 10.16V18H93.4146V10.16H94.8866ZM102.802 15.824C102.802 16.5067 102.504 17.0827 101.906 17.552C101.309 18.0213 100.557 18.256 99.6503 18.256C98.8609 18.256 98.1676 18.0533 97.5703 17.648C96.9729 17.232 96.5463 16.688 96.2903 16.016L97.6023 15.456C97.7943 15.9253 98.0716 16.2933 98.4343 16.56C98.8076 16.816 99.2129 16.944 99.6503 16.944C100.12 16.944 100.509 16.8427 100.818 16.64C101.138 16.4373 101.298 16.1973 101.298 15.92C101.298 15.4187 100.914 15.0507 100.146 14.816L98.8023 14.48C97.2769 14.096 96.5143 13.36 96.5143 12.272C96.5143 11.5573 96.8023 10.9867 97.3783 10.56C97.9649 10.1227 98.7116 9.904 99.6183 9.904C100.312 9.904 100.936 10.0693 101.49 10.4C102.056 10.7307 102.45 11.1733 102.674 11.728L101.362 12.272C101.213 11.9413 100.968 11.6853 100.626 11.504C100.296 11.312 99.9223 11.216 99.5063 11.216C99.1223 11.216 98.7756 11.312 98.4663 11.504C98.1676 11.696 98.0182 11.9307 98.0182 12.208C98.0182 12.656 98.4396 12.976 99.2823 13.168L100.466 13.472C102.024 13.856 102.802 14.64 102.802 15.824ZM104.084 6.544H105.556V10.16L105.492 11.248H105.556C105.78 10.864 106.121 10.544 106.58 10.288C107.049 10.032 107.534 9.904 108.036 9.904C108.996 9.904 109.732 10.1813 110.244 10.736C110.766 11.28 111.028 12.0587 111.028 13.072V18H109.556V13.36C109.556 11.952 108.932 11.248 107.684 11.248C107.086 11.248 106.58 11.4987 106.164 12C105.758 12.4907 105.556 13.0667 105.556 13.728V18H104.084V6.544ZM114.227 6.544V18H112.755V6.544H114.227ZM117.015 15.6C117.015 15.984 117.175 16.304 117.495 16.56C117.826 16.816 118.21 16.944 118.647 16.944C119.266 16.944 119.815 16.7147 120.295 16.256C120.786 15.7973 121.031 15.2587 121.031 14.64C120.572 14.2773 119.932 14.096 119.111 14.096C118.514 14.096 118.012 14.24 117.607 14.528C117.212 14.816 117.015 15.1733 117.015 15.6ZM118.919 9.904C120.007 9.904 120.866 10.1973 121.495 10.784C122.124 11.36 122.439 12.1547 122.439 13.168V18H121.031V16.912H120.967C120.359 17.808 119.548 18.256 118.535 18.256C117.671 18.256 116.946 18 116.359 17.488C115.783 16.976 115.495 16.336 115.495 15.568C115.495 14.7573 115.799 14.112 116.407 13.632C117.026 13.152 117.847 12.912 118.871 12.912C119.746 12.912 120.466 13.072 121.031 13.392V13.056C121.031 12.544 120.828 12.112 120.423 11.76C120.018 11.3973 119.543 11.216 118.999 11.216C118.178 11.216 117.527 11.5627 117.047 12.256L115.751 11.44C116.466 10.416 117.522 9.904 118.919 9.904ZM130.021 15.824C130.021 16.5067 129.722 17.0827 129.125 17.552C128.528 18.0213 127.776 18.256 126.869 18.256C126.08 18.256 125.386 18.0533 124.789 17.648C124.192 17.232 123.765 16.688 123.509 16.016L124.821 15.456C125.013 15.9253 125.29 16.2933 125.653 16.56C126.026 16.816 126.432 16.944 126.869 16.944C127.338 16.944 127.728 16.8427 128.037 16.64C128.357 16.4373 128.517 16.1973 128.517 15.92C128.517 15.4187 128.133 15.0507 127.365 14.816L126.021 14.48C124.496 14.096 123.733 13.36 123.733 12.272C123.733 11.5573 124.021 10.9867 124.597 10.56C125.184 10.1227 125.93 9.904 126.837 9.904C127.53 9.904 128.154 10.0693 128.709 10.4C129.274 10.7307 129.669 11.1733 129.893 11.728L128.581 12.272C128.432 11.9413 128.186 11.6853 127.845 11.504C127.514 11.312 127.141 11.216 126.725 11.216C126.341 11.216 125.994 11.312 125.685 11.504C125.386 11.696 125.237 11.9307 125.237 12.208C125.237 12.656 125.658 12.976 126.501 13.168L127.685 13.472C129.242 13.856 130.021 14.64 130.021 15.824ZM131.302 6.544H132.774V10.16L132.71 11.248H132.774C132.998 10.864 133.34 10.544 133.798 10.288C134.268 10.032 134.753 9.904 135.254 9.904C136.214 9.904 136.95 10.1813 137.462 10.736C137.985 11.28 138.246 12.0587 138.246 13.072V18H136.774V13.36C136.774 11.952 136.15 11.248 134.902 11.248C134.305 11.248 133.798 11.4987 133.382 12C132.977 12.4907 132.774 13.0667 132.774 13.728V18H131.302V6.544Z" fill="black"/>
</svg>
