<svg width="125" height="24" viewBox="0 0 125 24" fill="none" xmlns="http://www.w3.org/2000/svg">
<rect y="6" width="12" height="12" rx="6" fill="#00BAFC"/>
<path d="M24.704 18H23.232L20.064 10.16H21.664L23.968 16.24H24L26.336 10.16H27.904L24.704 18ZM30.7688 7.456C30.7688 7.744 30.6674 7.98933 30.4648 8.192C30.2621 8.39467 30.0168 8.496 29.7288 8.496C29.4408 8.496 29.1954 8.39467 28.9928 8.192C28.7901 7.98933 28.6888 7.744 28.6888 7.456C28.6888 7.168 28.7901 6.92267 28.9928 6.72C29.1954 6.51733 29.4408 6.416 29.7288 6.416C30.0168 6.416 30.2621 6.51733 30.4648 6.72C30.6674 6.92267 30.7688 7.168 30.7688 7.456ZM30.4648 10.16V18H28.9928V10.16H30.4648ZM38.3324 18H31.9964V16.72L36.4604 11.504H32.1244V10.16H38.2684V11.44L33.8044 16.656H38.3324V18ZM41.8 7.456C41.8 7.744 41.6987 7.98933 41.496 8.192C41.2933 8.39467 41.048 8.496 40.76 8.496C40.472 8.496 40.2267 8.39467 40.024 8.192C39.8213 7.98933 39.72 7.744 39.72 7.456C39.72 7.168 39.8213 6.92267 40.024 6.72C40.2267 6.51733 40.472 6.416 40.76 6.416C41.048 6.416 41.2933 6.51733 41.496 6.72C41.6987 6.92267 41.8 7.168 41.8 7.456ZM41.496 10.16V18H40.024V10.16H41.496ZM46.4375 18.128C45.7975 18.128 45.2642 17.9307 44.8375 17.536C44.4215 17.1413 44.2082 16.592 44.1975 15.888V11.504H42.8215V10.16H44.1975V7.76H45.6695V10.16H47.5895V11.504H45.6695V15.408C45.6695 15.9307 45.7708 16.288 45.9735 16.48C46.1762 16.6613 46.4055 16.752 46.6615 16.752C46.7788 16.752 46.8908 16.7413 46.9975 16.72C47.1148 16.688 47.2215 16.6507 47.3175 16.608L47.7815 17.92C47.3975 18.0587 46.9495 18.128 46.4375 18.128ZM55.9639 18H54.1879L51.7399 14.304L50.5399 15.488V18H49.0679V6.544H50.5399V13.6L53.9319 10.16H55.8199V10.224L52.7639 13.264L55.9639 17.936V18ZM57.718 15.6C57.718 15.984 57.878 16.304 58.198 16.56C58.5287 16.816 58.9127 16.944 59.35 16.944C59.9687 16.944 60.518 16.7147 60.998 16.256C61.4887 15.7973 61.734 15.2587 61.734 14.64C61.2753 14.2773 60.6353 14.096 59.814 14.096C59.2167 14.096 58.7153 14.24 58.31 14.528C57.9153 14.816 57.718 15.1733 57.718 15.6ZM59.622 9.904C60.71 9.904 61.5687 10.1973 62.198 10.784C62.8273 11.36 63.142 12.1547 63.142 13.168V18H61.734V16.912H61.67C61.062 17.808 60.2513 18.256 59.238 18.256C58.374 18.256 57.6487 18 57.062 17.488C56.486 16.976 56.198 16.336 56.198 15.568C56.198 14.7573 56.502 14.112 57.11 13.632C57.7287 13.152 58.55 12.912 59.574 12.912C60.4487 12.912 61.1687 13.072 61.734 13.392V13.056C61.734 12.544 61.5313 12.112 61.126 11.76C60.7207 11.3973 60.246 11.216 59.702 11.216C58.8807 11.216 58.23 11.5627 57.75 12.256L56.454 11.44C57.1687 10.416 58.2247 9.904 59.622 9.904Z" fill="black"/>
</svg>
