<svg width="125" height="24" viewBox="0 0 125 24" fill="none" xmlns="http://www.w3.org/2000/svg">
<rect y="6" width="12" height="12" rx="6" fill="#00BAFC"/>
<path d="M27.792 18H26.016L23.568 14.304L22.368 15.488V18H20.896V6.544H22.368V13.6L25.76 10.16H27.648V10.224L24.592 13.264L27.792 17.936V18ZM27.948 14.08C27.948 12.8747 28.3267 11.8773 29.084 11.088C29.852 10.2987 30.8173 9.904 31.98 9.904C33.1427 9.904 34.1027 10.2987 34.86 11.088C35.628 11.8773 36.012 12.8747 36.012 14.08C36.012 15.296 35.628 16.2933 34.86 17.072C34.1027 17.8613 33.1427 18.256 31.98 18.256C30.8173 18.256 29.852 17.8613 29.084 17.072C28.3267 16.2827 27.948 15.2853 27.948 14.08ZM29.42 14.08C29.42 14.9227 29.6653 15.6053 30.156 16.128C30.6467 16.6507 31.2547 16.912 31.98 16.912C32.7053 16.912 33.3133 16.6507 33.804 16.128C34.2947 15.6053 34.54 14.9227 34.54 14.08C34.54 13.248 34.2947 12.5707 33.804 12.048C33.3027 11.5147 32.6947 11.248 31.98 11.248C31.2653 11.248 30.6573 11.5147 30.156 12.048C29.6653 12.5707 29.42 13.248 29.42 14.08ZM38.6649 18H37.1929V10.16H38.6009V11.44H38.6649C38.8142 11.024 39.1182 10.672 39.5769 10.384C40.0462 10.0853 40.5049 9.936 40.9529 9.936C41.3795 9.936 41.7422 10 42.0409 10.128L41.5929 11.552C41.4115 11.4773 41.1235 11.44 40.7289 11.44C40.1742 11.44 39.6889 11.664 39.2729 12.112C38.8675 12.56 38.6649 13.0827 38.6649 13.68V18ZM46.8454 16.912C47.5494 16.912 48.1414 16.6453 48.6214 16.112C49.1014 15.5893 49.3414 14.912 49.3414 14.08C49.3414 13.2587 49.1014 12.5813 48.6214 12.048C48.1414 11.5147 47.5494 11.248 46.8454 11.248C46.1307 11.248 45.5334 11.5147 45.0534 12.048C44.584 12.5813 44.3494 13.2587 44.3494 14.08C44.3494 14.912 44.584 15.5947 45.0534 16.128C45.5334 16.6507 46.1307 16.912 46.8454 16.912ZM47.0854 18.256C46.5094 18.256 45.9814 18.1333 45.5014 17.888C45.032 17.6427 44.6694 17.3173 44.4134 16.912H44.3494L44.4134 18V21.456H42.9414V10.16H44.3494V11.248H44.4134C44.6694 10.8427 45.032 10.5173 45.5014 10.272C45.9814 10.0267 46.5094 9.904 47.0854 9.904C48.12 9.904 48.9947 10.3093 49.7094 11.12C50.4454 11.9413 50.8134 12.928 50.8134 14.08C50.8134 15.2427 50.4454 16.2293 49.7094 17.04C48.9947 17.8507 48.12 18.256 47.0854 18.256ZM51.7136 14.08C51.7136 12.8747 52.0923 11.8773 52.8496 11.088C53.6176 10.2987 54.583 9.904 55.7456 9.904C56.9083 9.904 57.8683 10.2987 58.6256 11.088C59.3936 11.8773 59.7776 12.8747 59.7776 14.08C59.7776 15.296 59.3936 16.2933 58.6256 17.072C57.8683 17.8613 56.9083 18.256 55.7456 18.256C54.583 18.256 53.6176 17.8613 52.8496 17.072C52.0923 16.2827 51.7136 15.2853 51.7136 14.08ZM53.1856 14.08C53.1856 14.9227 53.431 15.6053 53.9216 16.128C54.4123 16.6507 55.0203 16.912 55.7456 16.912C56.471 16.912 57.079 16.6507 57.5696 16.128C58.0603 15.6053 58.3056 14.9227 58.3056 14.08C58.3056 13.248 58.0603 12.5707 57.5696 12.048C57.0683 11.5147 56.4603 11.248 55.7456 11.248C55.031 11.248 54.423 11.5147 53.9216 12.048C53.431 12.5707 53.1856 13.248 53.1856 14.08ZM62.4305 18H60.9585V10.16H62.3665V11.44H62.4305C62.5798 11.024 62.8838 10.672 63.3425 10.384C63.8118 10.0853 64.2705 9.936 64.7185 9.936C65.1452 9.936 65.5078 10 65.8065 10.128L65.3585 11.552C65.1772 11.4773 64.8892 11.44 64.4945 11.44C63.9398 11.44 63.4545 11.664 63.0385 12.112C62.6332 12.56 62.4305 13.0827 62.4305 13.68V18ZM67.5305 15.6C67.5305 15.984 67.6905 16.304 68.0105 16.56C68.3412 16.816 68.7252 16.944 69.1625 16.944C69.7812 16.944 70.3305 16.7147 70.8105 16.256C71.3012 15.7973 71.5465 15.2587 71.5465 14.64C71.0878 14.2773 70.4478 14.096 69.6265 14.096C69.0292 14.096 68.5278 14.24 68.1225 14.528C67.7278 14.816 67.5305 15.1733 67.5305 15.6ZM69.4345 9.904C70.5225 9.904 71.3812 10.1973 72.0105 10.784C72.6398 11.36 72.9545 12.1547 72.9545 13.168V18H71.5465V16.912H71.4825C70.8745 17.808 70.0638 18.256 69.0505 18.256C68.1865 18.256 67.4612 18 66.8745 17.488C66.2985 16.976 66.0105 16.336 66.0105 15.568C66.0105 14.7573 66.3145 14.112 66.9225 13.632C67.5412 13.152 68.3625 12.912 69.3865 12.912C70.2612 12.912 70.9812 13.072 71.5465 13.392V13.056C71.5465 12.544 71.3438 12.112 70.9385 11.76C70.5332 11.3973 70.0585 11.216 69.5145 11.216C68.6932 11.216 68.0425 11.5627 67.5625 12.256L66.2665 11.44C66.9812 10.416 68.0372 9.904 69.4345 9.904ZM77.5625 18.128C76.9225 18.128 76.3892 17.9307 75.9625 17.536C75.5465 17.1413 75.3332 16.592 75.3225 15.888V11.504H73.9465V10.16H75.3225V7.76H76.7945V10.16H78.7145V11.504H76.7945V15.408C76.7945 15.9307 76.8958 16.288 77.0985 16.48C77.3012 16.6613 77.5305 16.752 77.7865 16.752C77.9038 16.752 78.0158 16.7413 78.1225 16.72C78.2398 16.688 78.3465 16.6507 78.4425 16.608L78.9065 17.92C78.5225 18.0587 78.0745 18.128 77.5625 18.128ZM82.0969 7.456C82.0969 7.744 81.9955 7.98933 81.7929 8.192C81.5902 8.39467 81.3449 8.496 81.0569 8.496C80.7689 8.496 80.5235 8.39467 80.3209 8.192C80.1182 7.98933 80.0169 7.744 80.0169 7.456C80.0169 7.168 80.1182 6.92267 80.3209 6.72C80.5235 6.51733 80.7689 6.416 81.0569 6.416C81.3449 6.416 81.5902 6.51733 81.7929 6.72C81.9955 6.92267 82.0969 7.168 82.0969 7.456ZM81.7929 10.16V18H80.3209V10.16H81.7929ZM87.5165 18H86.0445L82.8765 10.16H84.4765L86.7805 16.24H86.8125L89.1485 10.16H90.7165L87.5165 18Z" fill="black"/>
</svg>
