<svg width="125" height="24" viewBox="0 0 125 24" fill="none" xmlns="http://www.w3.org/2000/svg">
<rect y="6" width="12" height="12" rx="6" fill="#00BAFC"/>
<path d="M22.8 7.456C22.8 7.744 22.6987 7.98933 22.496 8.192C22.2933 8.39467 22.048 8.496 21.76 8.496C21.472 8.496 21.2267 8.39467 21.024 8.192C20.8213 7.98933 20.72 7.744 20.72 7.456C20.72 7.168 20.8213 6.92267 21.024 6.72C21.2267 6.51733 21.472 6.416 21.76 6.416C22.048 6.416 22.2933 6.51733 22.496 6.72C22.6987 6.92267 22.8 7.168 22.8 7.456ZM22.496 10.16V18H21.024V10.16H22.496ZM24.4116 10.16H25.8196V11.248H25.8836C26.1076 10.864 26.449 10.544 26.9076 10.288C27.377 10.032 27.8623 9.904 28.3636 9.904C29.3236 9.904 30.0596 10.1813 30.5716 10.736C31.0943 11.28 31.3556 12.0587 31.3556 13.072V18H29.8836V13.168C29.8516 11.888 29.2063 11.248 27.9476 11.248C27.361 11.248 26.8703 11.488 26.4756 11.968C26.081 12.4373 25.8836 13.0027 25.8836 13.664V18H24.4116V10.16ZM35.7812 18.128C35.1413 18.128 34.6079 17.9307 34.1813 17.536C33.7653 17.1413 33.5519 16.592 33.5413 15.888V11.504H32.1653V10.16H33.5413V7.76H35.0133V10.16H36.9333V11.504H35.0133V15.408C35.0133 15.9307 35.1146 16.288 35.3173 16.48C35.5199 16.6613 35.7493 16.752 36.0052 16.752C36.1226 16.752 36.2346 16.7413 36.3413 16.72C36.4586 16.688 36.5653 16.6507 36.6613 16.608L37.1253 17.92C36.7413 18.0587 36.2933 18.128 35.7812 18.128ZM41.7754 18.256C40.6234 18.256 39.674 17.8613 38.9274 17.072C38.1807 16.2827 37.8074 15.2853 37.8074 14.08C37.8074 12.8853 38.17 11.8933 38.8954 11.104C39.6207 10.304 40.5487 9.904 41.6794 9.904C42.842 9.904 43.7647 10.2827 44.4474 11.04C45.1407 11.7867 45.4874 12.8373 45.4874 14.192L45.4714 14.352H39.3114C39.3327 15.12 39.5887 15.7387 40.0794 16.208C40.57 16.6773 41.1567 16.912 41.8394 16.912C42.778 16.912 43.514 16.4427 44.0474 15.504L45.3594 16.144C45.0074 16.8053 44.5167 17.3227 43.8874 17.696C43.2687 18.0693 42.5647 18.256 41.7754 18.256ZM39.4234 13.136H43.9194C43.8767 12.592 43.6527 12.144 43.2474 11.792C42.8527 11.4293 42.3194 11.248 41.6474 11.248C41.0927 11.248 40.6127 11.4187 40.2074 11.76C39.8127 12.1013 39.5514 12.56 39.4234 13.136ZM48.3055 18H46.8335V10.16H48.2415V11.44H48.3055C48.4548 11.024 48.7588 10.672 49.2175 10.384C49.6868 10.0853 50.1455 9.936 50.5935 9.936C51.0202 9.936 51.3828 10 51.6815 10.128L51.2335 11.552C51.0522 11.4773 50.7642 11.44 50.3695 11.44C49.8148 11.44 49.3295 11.664 48.9135 12.112C48.5082 12.56 48.3055 13.0827 48.3055 13.68V18ZM52.646 10.16H54.054V11.248H54.118C54.342 10.864 54.6833 10.544 55.142 10.288C55.6113 10.032 56.0967 9.904 56.598 9.904C57.558 9.904 58.294 10.1813 58.806 10.736C59.3287 11.28 59.59 12.0587 59.59 13.072V18H58.118V13.168C58.086 11.888 57.4407 11.248 56.182 11.248C55.5953 11.248 55.1047 11.488 54.71 11.968C54.3153 12.4373 54.118 13.0027 54.118 13.664V18H52.646V10.16ZM64.8379 18.256C63.6859 18.256 62.7365 17.8613 61.9899 17.072C61.2432 16.2827 60.8699 15.2853 60.8699 14.08C60.8699 12.8853 61.2325 11.8933 61.9579 11.104C62.6832 10.304 63.6112 9.904 64.7419 9.904C65.9045 9.904 66.8272 10.2827 67.5099 11.04C68.2032 11.7867 68.5499 12.8373 68.5499 14.192L68.5339 14.352H62.3739C62.3952 15.12 62.6512 15.7387 63.1419 16.208C63.6325 16.6773 64.2192 16.912 64.9019 16.912C65.8405 16.912 66.5765 16.4427 67.1099 15.504L68.4219 16.144C68.0699 16.8053 67.5792 17.3227 66.9499 17.696C66.3312 18.0693 65.6272 18.256 64.8379 18.256ZM62.4859 13.136H66.9819C66.9392 12.592 66.7152 12.144 66.3099 11.792C65.9152 11.4293 65.3819 11.248 64.7099 11.248C64.1552 11.248 63.6752 11.4187 63.2699 11.76C62.8752 12.1013 62.6139 12.56 62.4859 13.136ZM72.7656 18.128C72.1256 18.128 71.5923 17.9307 71.1656 17.536C70.7496 17.1413 70.5363 16.592 70.5256 15.888V11.504H69.1496V10.16H70.5256V7.76H71.9976V10.16H73.9176V11.504H71.9976V15.408C71.9976 15.9307 72.099 16.288 72.3016 16.48C72.5043 16.6613 72.7336 16.752 72.9896 16.752C73.107 16.752 73.219 16.7413 73.3256 16.72C73.443 16.688 73.5496 16.6507 73.6456 16.608L74.1096 17.92C73.7256 18.0587 73.2776 18.128 72.7656 18.128ZM82.3535 16.912C83.0788 16.912 83.6708 16.6507 84.1295 16.128C84.6095 15.6053 84.8495 14.9227 84.8495 14.08C84.8495 13.2587 84.6095 12.5813 84.1295 12.048C83.6602 11.5147 83.0682 11.248 82.3535 11.248C81.6495 11.248 81.0575 11.5147 80.5775 12.048C80.0975 12.5813 79.8575 13.2587 79.8575 14.08C79.8575 14.912 80.0975 15.5893 80.5775 16.112C81.0575 16.6453 81.6495 16.912 82.3535 16.912ZM82.1135 18.256C81.0895 18.256 80.2095 17.8507 79.4735 17.04C78.7482 16.2187 78.3855 15.232 78.3855 14.08C78.3855 12.928 78.7482 11.9413 79.4735 11.12C80.2095 10.3093 81.0895 9.904 82.1135 9.904C82.6895 9.904 83.2122 10.0267 83.6815 10.272C84.1615 10.5173 84.5295 10.8427 84.7855 11.248H84.8495L84.7855 10.16V6.544H86.2575V18H84.8495V16.912H84.7855C84.5295 17.3173 84.1615 17.6427 83.6815 17.888C83.2122 18.1333 82.6895 18.256 82.1135 18.256ZM87.5261 14.08C87.5261 12.8747 87.9048 11.8773 88.6621 11.088C89.4301 10.2987 90.3955 9.904 91.5581 9.904C92.7208 9.904 93.6808 10.2987 94.4381 11.088C95.2061 11.8773 95.5901 12.8747 95.5901 14.08C95.5901 15.296 95.2061 16.2933 94.4381 17.072C93.6808 17.8613 92.7208 18.256 91.5581 18.256C90.3955 18.256 89.4301 17.8613 88.6621 17.072C87.9048 16.2827 87.5261 15.2853 87.5261 14.08ZM88.9981 14.08C88.9981 14.9227 89.2435 15.6053 89.7341 16.128C90.2248 16.6507 90.8328 16.912 91.5581 16.912C92.2835 16.912 92.8915 16.6507 93.3821 16.128C93.8728 15.6053 94.1181 14.9227 94.1181 14.08C94.1181 13.248 93.8728 12.5707 93.3821 12.048C92.8808 11.5147 92.2728 11.248 91.5581 11.248C90.8435 11.248 90.2355 11.5147 89.7341 12.048C89.2435 12.5707 88.9981 13.248 88.9981 14.08ZM97.4873 10.032L96.7993 9.584L97.5993 8.368C97.3753 8.32533 97.1833 8.21333 97.0233 8.032C96.8739 7.85067 96.7993 7.632 96.7993 7.376C96.7993 7.06667 96.9059 6.81067 97.1193 6.608C97.3326 6.39467 97.5886 6.288 97.8873 6.288C98.1966 6.288 98.4526 6.39467 98.6553 6.608C98.8686 6.81067 98.9753 7.06667 98.9753 7.376C98.9753 7.67467 98.8633 8 98.6393 8.352L97.4873 10.032ZM107.542 18H105.766L103.318 14.304L102.118 15.488V18H100.646V6.544H102.118V13.6L105.51 10.16H107.398V10.224L104.342 13.264L107.542 17.936V18ZM107.698 14.08C107.698 12.8747 108.077 11.8773 108.834 11.088C109.602 10.2987 110.567 9.904 111.73 9.904C112.893 9.904 113.853 10.2987 114.61 11.088C115.378 11.8773 115.762 12.8747 115.762 14.08C115.762 15.296 115.378 16.2933 114.61 17.072C113.853 17.8613 112.893 18.256 111.73 18.256C110.567 18.256 109.602 17.8613 108.834 17.072C108.077 16.2827 107.698 15.2853 107.698 14.08ZM109.17 14.08C109.17 14.9227 109.415 15.6053 109.906 16.128C110.397 16.6507 111.005 16.912 111.73 16.912C112.455 16.912 113.063 16.6507 113.554 16.128C114.045 15.6053 114.29 14.9227 114.29 14.08C114.29 13.248 114.045 12.5707 113.554 12.048C113.053 11.5147 112.445 11.248 111.73 11.248C111.015 11.248 110.407 11.5147 109.906 12.048C109.415 12.5707 109.17 13.248 109.17 14.08ZM116.943 10.16H118.351V11.248H118.415C118.639 10.864 118.98 10.544 119.439 10.288C119.908 10.032 120.394 9.904 120.895 9.904C121.855 9.904 122.591 10.1813 123.103 10.736C123.626 11.28 123.887 12.0587 123.887 13.072V18H122.415V13.168C122.383 11.888 121.738 11.248 120.479 11.248C119.892 11.248 119.402 11.488 119.007 11.968C118.612 12.4373 118.415 13.0027 118.415 13.664V18H116.943V10.16Z" fill="black"/>
</svg>
