<svg width="125" height="24" viewBox="0 0 125 24" fill="none" xmlns="http://www.w3.org/2000/svg">
<rect y="6" width="12" height="12" rx="6" fill="#00BAFC"/>
<path d="M22.368 18H20.896V10.16H22.304V11.248H22.368C22.592 10.864 22.9333 10.544 23.392 10.288C23.8613 10.032 24.3253 9.904 24.784 9.904C25.36 9.904 25.8667 10.0373 26.304 10.304C26.7413 10.5707 27.0613 10.9387 27.264 11.408C27.9147 10.4053 28.816 9.904 29.968 9.904C30.8747 9.904 31.5733 10.1813 32.064 10.736C32.5547 11.2907 32.8 12.08 32.8 13.104V18H31.328V13.328C31.328 12.592 31.1947 12.064 30.928 11.744C30.6613 11.4133 30.2133 11.248 29.584 11.248C29.0187 11.248 28.544 11.488 28.16 11.968C27.776 12.448 27.584 13.0133 27.584 13.664V18H26.112V13.328C26.112 12.592 25.9787 12.064 25.712 11.744C25.4453 11.4133 24.9973 11.248 24.368 11.248C23.8027 11.248 23.328 11.488 22.944 11.968C22.56 12.448 22.368 13.0133 22.368 13.664V18ZM35.5149 15.6C35.5149 15.984 35.6749 16.304 35.9949 16.56C36.3255 16.816 36.7095 16.944 37.1469 16.944C37.7655 16.944 38.3149 16.7147 38.7949 16.256C39.2855 15.7973 39.5309 15.2587 39.5309 14.64C39.0722 14.2773 38.4322 14.096 37.6109 14.096C37.0135 14.096 36.5122 14.24 36.1069 14.528C35.7122 14.816 35.5149 15.1733 35.5149 15.6ZM37.4189 9.904C38.5069 9.904 39.3655 10.1973 39.9949 10.784C40.6242 11.36 40.9389 12.1547 40.9389 13.168V18H39.5309V16.912H39.4669C38.8589 17.808 38.0482 18.256 37.0349 18.256C36.1709 18.256 35.4455 18 34.8589 17.488C34.2829 16.976 33.9949 16.336 33.9949 15.568C33.9949 14.7573 34.2989 14.112 34.9069 13.632C35.5255 13.152 36.3469 12.912 37.3709 12.912C38.2455 12.912 38.9655 13.072 39.5309 13.392V13.056C39.5309 12.544 39.3282 12.112 38.9229 11.76C38.5175 11.3973 38.0429 11.216 37.4989 11.216C36.6775 11.216 36.0269 11.5627 35.5469 12.256L34.2509 11.44C34.9655 10.416 36.0215 9.904 37.4189 9.904ZM46.249 14.016L49.049 18H47.321L45.385 15.104L43.481 18H41.753L44.521 14.016L41.817 10.16H43.481L45.417 12.928L47.257 10.16H48.985L46.249 14.016ZM55.8335 15.824C55.8335 16.5067 55.5348 17.0827 54.9375 17.552C54.3402 18.0213 53.5882 18.256 52.6815 18.256C51.8922 18.256 51.1988 18.0533 50.6015 17.648C50.0042 17.232 49.5775 16.688 49.3215 16.016L50.6335 15.456C50.8255 15.9253 51.1028 16.2933 51.4655 16.56C51.8388 16.816 52.2442 16.944 52.6815 16.944C53.1508 16.944 53.5402 16.8427 53.8495 16.64C54.1695 16.4373 54.3295 16.1973 54.3295 15.92C54.3295 15.4187 53.9455 15.0507 53.1775 14.816L51.8335 14.48C50.3082 14.096 49.5455 13.36 49.5455 12.272C49.5455 11.5573 49.8335 10.9867 50.4095 10.56C50.9962 10.1227 51.7428 9.904 52.6495 9.904C53.3428 9.904 53.9668 10.0693 54.5215 10.4C55.0868 10.7307 55.4815 11.1733 55.7055 11.728L54.3935 12.272C54.2442 11.9413 53.9988 11.6853 53.6575 11.504C53.3268 11.312 52.9535 11.216 52.5375 11.216C52.1535 11.216 51.8068 11.312 51.4975 11.504C51.1988 11.696 51.0495 11.9307 51.0495 12.208C51.0495 12.656 51.4708 12.976 52.3135 13.168L53.4975 13.472C55.0548 13.856 55.8335 14.64 55.8335 15.824ZM63.9948 18H62.5868V16.912H62.5228C62.2988 17.296 61.9521 17.616 61.4828 17.872C61.0241 18.128 60.5441 18.256 60.0428 18.256C59.0828 18.256 58.3414 17.984 57.8188 17.44C57.3068 16.8853 57.0508 16.1013 57.0508 15.088V10.16H58.5228V14.992C58.5548 16.272 59.2001 16.912 60.4588 16.912C61.0454 16.912 61.5361 16.6773 61.9308 16.208C62.3254 15.728 62.5228 15.1573 62.5228 14.496V10.16H63.9948V18ZM71.7085 15.824C71.7085 16.5067 71.4098 17.0827 70.8125 17.552C70.2152 18.0213 69.4632 18.256 68.5565 18.256C67.7672 18.256 67.0738 18.0533 66.4765 17.648C65.8792 17.232 65.4525 16.688 65.1965 16.016L66.5085 15.456C66.7005 15.9253 66.9778 16.2933 67.3405 16.56C67.7138 16.816 68.1192 16.944 68.5565 16.944C69.0258 16.944 69.4152 16.8427 69.7245 16.64C70.0445 16.4373 70.2045 16.1973 70.2045 15.92C70.2045 15.4187 69.8205 15.0507 69.0525 14.816L67.7085 14.48C66.1832 14.096 65.4205 13.36 65.4205 12.272C65.4205 11.5573 65.7085 10.9867 66.2845 10.56C66.8712 10.1227 67.6178 9.904 68.5245 9.904C69.2178 9.904 69.8418 10.0693 70.3965 10.4C70.9618 10.7307 71.3565 11.1733 71.5805 11.728L70.2685 12.272C70.1192 11.9413 69.8738 11.6853 69.5325 11.504C69.2018 11.312 68.8285 11.216 68.4125 11.216C68.0285 11.216 67.6818 11.312 67.3725 11.504C67.0738 11.696 66.9245 11.9307 66.9245 12.208C66.9245 12.656 67.3458 12.976 68.1885 13.168L69.3725 13.472C70.9298 13.856 71.7085 14.64 71.7085 15.824Z" fill="black"/>
</svg>
